<svg width="1122" height="780" viewBox="0 0 1122 780" fill="none" xmlns="http://www.w3.org/2000/svg">
<path d="M47.399 776.322C32.4674 776.322 15.6467 784.597 0 776.322V0H912.931H1104.65L1121.5 34.5032L1113.48 51.7548V94.2203L1099.04 114.126L1085.4 126.069V165.881L1074.97 189.768V228.252L1066.95 266.736L1040.48 299.249L1026.84 334.416L1007.59 349.677V396.787L990.743 448.542L947.425 473.756L931.381 500.96L909.722 522.856L900.898 556.696L871.217 583.9L826.378 595.18L789.175 618.404L743.621 667.504H714.01L691.233 694.045L666.149 723.24L604.122 736.362L507.068 743.002L413.662 718.435L364.001 667.504H291.874C270.615 667.504 248.091 665.512 239.486 665.512L176.5 712.459H170.662L167.743 716.443L165.554 719.099L161.905 720.427L156.068 721.091L153.149 721.755V725.075L150.23 729.059H139.284L131.257 731.051L126.878 736.362L124.689 740.346L115.932 738.354H106.446L102.068 744.994L91.1217 746.322L86.7433 751.634L87.473 753.626L85.3611 756.416L85.8738 759.734L84.2694 762.388H81.0607L78.6541 764.379L76.2474 765.042L73.0387 767.696L69.0278 768.36L67.4235 771.677H60.2037L54.5884 773.005L52.984 776.322H47.399Z" fill="#2B82FB"/>
</svg>
