<svg width="1920" height="704" viewBox="0 0 1920 704" fill="none" xmlns="http://www.w3.org/2000/svg">
<rect width="1920" height="703" transform="translate(0 1)" fill="#2B82FB"/>
<line y1="43.5" x2="1920" y2="43.5" stroke="white"/>
<line y1="307.5" x2="1920" y2="307.5" stroke="white"/>
<line y1="131.5" x2="1920" y2="131.5" stroke="white"/>
<line y1="395.5" x2="1920" y2="395.5" stroke="white"/>
<line y1="571.5" x2="1920" y2="571.5" stroke="white"/>
<line y1="219.5" x2="1920" y2="219.5" stroke="white"/>
<line y1="483.5" x2="1920" y2="483.5" stroke="white"/>
<line y1="659.5" x2="1920" y2="659.5" stroke="white"/>
<line y1="87.5" x2="1920" y2="87.5" stroke="white"/>
<line y1="351.5" x2="1920" y2="351.5" stroke="white"/>
<line y1="175.5" x2="1920" y2="175.5" stroke="white"/>
<line y1="439.5" x2="1920" y2="439.5" stroke="white"/>
<line y1="615.5" x2="1920" y2="615.5" stroke="white"/>
<line y1="263.5" x2="1920" y2="263.5" stroke="white"/>
<line y1="527.5" x2="1920" y2="527.5" stroke="white"/>
<line y1="703.5" x2="1920" y2="703.5" stroke="white"/>
<line x1="42.5" y1="2.18557e-08" x2="42.5" y2="703" stroke="white"/>
<line x1="394.5" y1="2.18557e-08" x2="394.5" y2="703" stroke="white"/>
<line x1="746.5" y1="2.18557e-08" x2="746.5" y2="703" stroke="white"/>
<line x1="1098.5" y1="1" x2="1098.5" y2="704" stroke="white"/>
<line x1="1450.5" y1="1" x2="1450.5" y2="704" stroke="white"/>
<line x1="1802.5" y1="2.18557e-08" x2="1802.5" y2="703" stroke="white"/>
<line x1="218.5" y1="2.18557e-08" x2="218.5" y2="703" stroke="white"/>
<line x1="570.5" y1="2.18557e-08" x2="570.5" y2="703" stroke="white"/>
<line x1="922.5" y1="2.18557e-08" x2="922.5" y2="703" stroke="white"/>
<line x1="1274.5" y1="1" x2="1274.5" y2="704" stroke="white"/>
<line x1="1626.5" y1="1" x2="1626.5" y2="704" stroke="white"/>
<line x1="130.5" y1="2.18557e-08" x2="130.5" y2="703" stroke="white"/>
<line x1="482.5" y1="2.18557e-08" x2="482.5" y2="703" stroke="white"/>
<line x1="834.5" y1="2.18557e-08" x2="834.5" y2="703" stroke="white"/>
<line x1="1186.5" y1="1" x2="1186.5" y2="704" stroke="white"/>
<line x1="1538.5" y1="1" x2="1538.5" y2="704" stroke="white"/>
<line x1="1890.5" y1="2.18557e-08" x2="1890.5" y2="703" stroke="white"/>
<line x1="306.5" y1="2.18557e-08" x2="306.5" y2="703" stroke="white"/>
<line x1="658.5" y1="2.18557e-08" x2="658.5" y2="703" stroke="white"/>
<line x1="1010.5" y1="2.18557e-08" x2="1010.5" y2="703" stroke="white"/>
<line x1="1362.5" y1="1" x2="1362.5" y2="704" stroke="white"/>
<line x1="1714.5" y1="1" x2="1714.5" y2="704" stroke="white"/>
<line x1="86.5" y1="2.18557e-08" x2="86.5" y2="703" stroke="white"/>
<line x1="438.5" y1="2.18557e-08" x2="438.5" y2="703" stroke="white"/>
<line x1="790.5" y1="2.18557e-08" x2="790.5" y2="703" stroke="white"/>
<line x1="1142.5" y1="1" x2="1142.5" y2="704" stroke="white"/>
<line x1="1494.5" y1="1" x2="1494.5" y2="704" stroke="white"/>
<line x1="1846.5" y1="2.18557e-08" x2="1846.5" y2="703" stroke="white"/>
<line x1="262.5" y1="2.18557e-08" x2="262.5" y2="703" stroke="white"/>
<line x1="614.5" y1="2.18557e-08" x2="614.5" y2="703" stroke="white"/>
<line x1="966.5" y1="2.18557e-08" x2="966.5" y2="703" stroke="white"/>
<line x1="1318.5" y1="1" x2="1318.5" y2="704" stroke="white"/>
<line x1="1670.5" y1="1" x2="1670.5" y2="704" stroke="white"/>
<line x1="174.5" y1="2.18557e-08" x2="174.5" y2="703" stroke="white"/>
<line x1="526.5" y1="2.18557e-08" x2="526.5" y2="703" stroke="white"/>
<line x1="878.5" y1="2.18557e-08" x2="878.5" y2="703" stroke="white"/>
<line x1="1230.5" y1="1" x2="1230.5" y2="704" stroke="white"/>
<line x1="1582.5" y1="1" x2="1582.5" y2="704" stroke="white"/>
<line x1="350.5" y1="2.18557e-08" x2="350.5" y2="703" stroke="white"/>
<line x1="702.5" y1="2.18557e-08" x2="702.5" y2="703" stroke="white"/>
<line x1="1054.5" y1="2.18557e-08" x2="1054.5" y2="703" stroke="white"/>
<line x1="1406.5" y1="1" x2="1406.5" y2="704" stroke="white"/>
<line x1="1758.5" y1="1" x2="1758.5" y2="704" stroke="white"/>
</svg>
