<svg width="1405" height="588" viewBox="0 0 1405 588" fill="none" xmlns="http://www.w3.org/2000/svg">
<path d="M1262.09 0H-1V515.139L5.04614 518.137H7.79431L11.0923 521.635H13.8405L18.2377 524.133L27.0321 526.631L29.2306 530.129H30.8796L33.0781 533.127L36.9257 534.126L38.025 536.624L42.9718 538.623L46.2698 541.121H49.0179L51.2166 542.62V544.619H53.4152L57.2627 546.617L58.9116 548.616V550.614L60.5605 551.114L61.6599 553.612L62.7592 554.112L62.2095 556.111L63.3088 557.11H64.9578H68.2556L70.4542 558.609H72.6528L143.101 584.591L223.214 569.601C236.913 570.434 266.393 569.101 274.716 557.11C283.04 545.118 309.05 529.129 321.016 522.634L335 530.5L388.124 522.634H532.745L542.602 543.12L551.946 547.617L565.138 554.612L575.581 564.105C583.276 569.601 598.5 570.5 622.742 584.591C633.463 590.822 658.811 584.591 669.042 584.591H672.869L673.968 582.092L677.815 581.093H682.762L683.862 578.595L686.61 578.095L688.808 576.097L690.457 575.597L692.106 574.098H694.305L695.404 572.099L695.053 569.601L696.5 567.5L696 566L699 562L706.5 561L709.5 556H716L722 557.5L723.5 554.5L726.5 550.5L732 549H739.5L741.5 546V543.5L743.5 543L747.5 542.5L750 541.5L751.5 539.5L753.5 536.5H757.5L800.657 501.148C806.553 501.148 821.986 502.648 836.552 502.648H885.973L920 541L984 559.5L1050.5 554.5L1093 544.619L1110.19 522.634L1125.79 502.648H1146.08L1177.3 465.674L1202.79 448.186L1233.51 439.692L1253.85 419.206L1259.89 393.724L1274.73 377.236L1285.73 356.75L1315.41 337.763L1326.95 298.791V263.316L1340.14 251.824L1349.49 225.342L1367.62 200.859L1373.12 171.88V142.9L1380.27 124.913V94.9335L1389.61 85.9398L1399.5 70.9503V38.9727L1405 25.9818L1393.46 0H1262.09Z" fill="white"/>
<path d="M1298.17 108.993C1299.27 108.9 1300.09 107.933 1299.99 106.832L1298.48 88.8957C1298.39 87.795 1297.42 86.9778 1296.32 87.0705C1295.22 87.1631 1294.4 88.1305 1294.5 89.2311L1295.84 105.175L1279.9 106.517C1278.79 106.609 1277.98 107.577 1278.07 108.677C1278.16 109.778 1279.13 110.595 1280.23 110.502L1298.17 108.993ZM789.836 108.817C844.577 83.6135 935.696 53.3512 1031 44.5278C1126.34 35.7003 1225.49 48.3626 1296.71 108.528L1299.29 105.472C1226.87 44.294 1126.42 31.6764 1030.63 40.5448C934.797 49.4173 843.238 79.8267 788.164 105.183L789.836 108.817Z" fill="#FBBC04"/>
</svg>
